<svg xmlns="http://www.w3.org/2000/svg" viewBox="0 0 480 600" fill="none">
  <defs>
    <linearGradient id="bgGrad" x1="0" y1="0" x2="480" y2="600">
      <stop offset="0%" stop-color="#2c2c2c"/>
      <stop offset="40%" stop-color="#3a3a3a"/>
      <stop offset="100%" stop-color="#1a1a1a"/>
    </linearGradient>
    <linearGradient id="asphalt" x1="0" y1="400" x2="0" y2="600">
      <stop offset="0%" stop-color="#4a4a4a"/>
      <stop offset="30%" stop-color="#3d3d3d"/>
      <stop offset="100%" stop-color="#2a2a2a"/>
    </linearGradient>
    <linearGradient id="metalArm" x1="0" y1="0" x2="1" y2="0">
      <stop offset="0%" stop-color="#1a1a1a"/>
      <stop offset="25%" stop-color="#3a3a3a"/>
      <stop offset="50%" stop-color="#555"/>
      <stop offset="75%" stop-color="#3a3a3a"/>
      <stop offset="100%" stop-color="#1a1a1a"/>
    </linearGradient>
    <linearGradient id="suctionBase" x1="0" y1="0" x2="0" y2="1">
      <stop offset="0%" stop-color="#666"/>
      <stop offset="20%" stop-color="#999"/>
      <stop offset="40%" stop-color="#aaa"/>
      <stop offset="60%" stop-color="#888"/>
      <stop offset="80%" stop-color="#666"/>
      <stop offset="100%" stop-color="#444"/>
    </linearGradient>
    <linearGradient id="suctionTop" x1="0" y1="0" x2="0" y2="1">
      <stop offset="0%" stop-color="#555"/>
      <stop offset="50%" stop-color="#333"/>
      <stop offset="100%" stop-color="#222"/>
    </linearGradient>
    <linearGradient id="jointMetal" x1="0" y1="0" x2="1" y2="1">
      <stop offset="0%" stop-color="#777"/>
      <stop offset="30%" stop-color="#ccc"/>
      <stop offset="50%" stop-color="#eee"/>
      <stop offset="70%" stop-color="#bbb"/>
      <stop offset="100%" stop-color="#666"/>
    </linearGradient>
    <linearGradient id="clampBody" x1="0" y1="0" x2="0" y2="1">
      <stop offset="0%" stop-color="#333"/>
      <stop offset="20%" stop-color="#444"/>
      <stop offset="80%" stop-color="#2a2a2a"/>
      <stop offset="100%" stop-color="#1a1a1a"/>
    </linearGradient>
    <pattern id="carbonPattern" x="0" y="0" width="4" height="4" patternUnits="userSpaceOnUse">
      <rect width="4" height="4" fill="#2a2a2a"/>
      <rect x="0" y="0" width="2" height="2" fill="#333" opacity="0.5"/>
      <rect x="2" y="2" width="2" height="2" fill="#333" opacity="0.5"/>
    </pattern>
    <filter id="dropShadow">
      <feDropShadow dx="0" dy="8" stdDeviation="15" flood-color="#000" flood-opacity="0.5"/>
    </filter>
  </defs>
  <rect width="480" height="600" fill="url(#bgGrad)"/>
  <path d="M0 420 Q120 400 240 415 Q360 430 480 410 L480 600 L0 600 Z" fill="url(#asphalt)"/>
  <g opacity="0.15">
    <circle cx="50" cy="450" r="1" fill="#888"/><circle cx="120" cy="470" r="0.8" fill="#999"/>
    <circle cx="200" cy="440" r="1.2" fill="#777"/><circle cx="300" cy="460" r="0.7" fill="#aaa"/>
    <circle cx="380" cy="445" r="1" fill="#888"/><circle cx="430" cy="475" r="0.9" fill="#999"/>
    <circle cx="80" cy="490" r="0.8" fill="#888"/><circle cx="160" cy="510" r="1" fill="#777"/>
    <circle cx="260" cy="495" r="1.1" fill="#999"/><circle cx="350" cy="520" r="0.7" fill="#aaa"/>
  </g>
  <g transform="translate(290, 80)" filter="url(#dropShadow)">
    <ellipse cx="0" cy="390" rx="52" ry="14" fill="#222" opacity="0.4"/>
    <ellipse cx="0" cy="378" rx="50" ry="13" fill="url(#suctionBase)" stroke="#888" stroke-width="0.5"/>
    <ellipse cx="0" cy="374" rx="46" ry="11" fill="#555"/>
    <ellipse cx="0" cy="374" rx="40" ry="9" fill="none" stroke="#777" stroke-width="1.5"/>
    <ellipse cx="0" cy="372" rx="36" ry="8" fill="url(#suctionTop)"/>
    <path d="M-33 370 Q-33 405 0 410 Q33 405 33 370" fill="#222" stroke="#333" stroke-width="0.5"/>
    <rect x="-9" y="280" width="18" height="92" rx="3" fill="url(#metalArm)"/>
    <line x1="-5" y1="288" x2="-5" y2="364" stroke="#444" stroke-width="0.5"/>
    <line x1="5" y1="288" x2="5" y2="364" stroke="#444" stroke-width="0.5"/>
    <rect x="-11" y="320" width="22" height="12" rx="3" fill="#333" stroke="#555" stroke-width="0.5"/>
    <circle cx="0" cy="278" r="15" fill="url(#jointMetal)" stroke="#999" stroke-width="1"/>
    <circle cx="0" cy="278" r="9" fill="#aaa"/>
    <circle cx="-3" cy="275" r="3.5" fill="#ddd" opacity="0.6"/>
    <g transform="rotate(-18, 0, 278)">
      <rect x="-8" y="185" width="16" height="96" rx="3" fill="url(#metalArm)"/>
    </g>
    <circle cx="-30" cy="200" r="13" fill="url(#jointMetal)" stroke="#999" stroke-width="1"/>
    <circle cx="-30" cy="200" r="7" fill="#bbb"/>
    <g transform="translate(-30, 200)">
      <rect x="-42" y="-80" width="84" height="65" rx="5" fill="url(#clampBody)" stroke="#444" stroke-width="1"/>
      <rect x="-39" y="-77" width="78" height="59" rx="3" fill="url(#carbonPattern)" opacity="0.3"/>
      <rect x="-7" y="-70" width="14" height="45" rx="2" fill="#3a3a3a" stroke="#555" stroke-width="0.5"/>
      <rect x="-52" y="-68" width="13" height="40" rx="3" fill="#2a2a2a" stroke="#444" stroke-width="0.8"/>
      <rect x="-50" y="-61" width="9" height="7" rx="1.5" fill="#333"/>
      <rect x="-50" y="-50" width="9" height="7" rx="1.5" fill="#333"/>
      <rect x="-50" y="-39" width="9" height="7" rx="1.5" fill="#333"/>
      <rect x="39" y="-68" width="13" height="40" rx="3" fill="#2a2a2a" stroke="#444" stroke-width="0.8"/>
      <rect x="41" y="-61" width="9" height="7" rx="1.5" fill="#333"/>
      <rect x="41" y="-50" width="9" height="7" rx="1.5" fill="#333"/>
      <rect x="41" y="-39" width="9" height="7" rx="1.5" fill="#333"/>
      <rect x="-28" y="-15" width="18" height="7" rx="2" fill="#333" transform="rotate(-12, -19, -11)"/>
      <rect x="10" y="-15" width="18" height="7" rx="2" fill="#333" transform="rotate(12, 19, -11)"/>
    </g>
  </g>
  <g transform="translate(150, 100)" filter="url(#dropShadow)">
    <ellipse cx="0" cy="390" rx="50" ry="13" fill="#222" opacity="0.4"/>
    <ellipse cx="0" cy="380" rx="46" ry="11" fill="url(#suctionBase)" stroke="#888" stroke-width="0.5"/>
    <ellipse cx="0" cy="376" rx="42" ry="10" fill="#555"/>
    <ellipse cx="0" cy="376" rx="36" ry="8" fill="none" stroke="#777" stroke-width="1.2"/>
    <ellipse cx="0" cy="374" rx="32" ry="7" fill="url(#suctionTop)"/>
    <path d="M-30 372 Q-30 405 0 410 Q30 405 30 372" fill="#222" stroke="#333" stroke-width="0.5"/>
    <rect x="-8" y="288" width="16" height="86" rx="3" fill="url(#metalArm)"/>
    <rect x="-10" y="325" width="20" height="11" rx="2" fill="#333" stroke="#555" stroke-width="0.5"/>
    <circle cx="0" cy="286" r="13" fill="url(#jointMetal)" stroke="#999" stroke-width="1"/>
    <circle cx="0" cy="286" r="7" fill="#bbb"/>
    <rect x="-7" y="196" width="14" height="93" rx="3" fill="url(#metalArm)"/>
    <circle cx="0" cy="194" r="12" fill="url(#jointMetal)" stroke="#999" stroke-width="1"/>
    <circle cx="0" cy="194" r="6" fill="#bbb"/>
    <rect x="-46" y="115" width="92" height="72" rx="5" fill="url(#clampBody)" stroke="#444" stroke-width="1"/>
    <rect x="-43" y="118" width="86" height="66" rx="3" fill="url(#carbonPattern)" opacity="0.3"/>
    <circle cx="0" cy="148" r="7" fill="#3a3a3a" stroke="#555" stroke-width="0.8"/>
    <circle cx="0" cy="148" r="3.5" fill="#444"/>
    <rect x="-56" y="124" width="13" height="50" rx="3" fill="#2a2a2a" stroke="#444" stroke-width="0.8"/>
    <rect x="-54" y="131" width="9" height="6" rx="1.5" fill="#333"/>
    <rect x="-54" y="141" width="9" height="6" rx="1.5" fill="#333"/>
    <rect x="-54" y="151" width="9" height="6" rx="1.5" fill="#333"/>
    <rect x="43" y="124" width="13" height="50" rx="3" fill="#2a2a2a" stroke="#444" stroke-width="0.8"/>
    <rect x="45" y="131" width="9" height="6" rx="1.5" fill="#333"/>
    <rect x="45" y="141" width="9" height="6" rx="1.5" fill="#333"/>
    <rect x="45" y="151" width="9" height="6" rx="1.5" fill="#333"/>
    <rect x="-32" y="180" width="20" height="6" rx="2" fill="#333" transform="rotate(-10, -22, 183)"/>
    <rect x="12" y="180" width="20" height="6" rx="2" fill="#333" transform="rotate(10, 22, 183)"/>
  </g>
  <g transform="translate(28, 440)">
    <rect x="0" y="0" width="30" height="28" rx="3" fill="none" stroke="#fff" stroke-width="1.3" opacity="0.8"/>
    <rect x="4" y="3" width="22" height="16" rx="2" fill="none" stroke="#fff" stroke-width="0.8" opacity="0.6"/>
    <line x1="15" y1="19" x2="15" y2="25" stroke="#fff" stroke-width="0.8" opacity="0.6"/>
    <line x1="9" y1="25" x2="21" y2="25" stroke="#fff" stroke-width="0.8" opacity="0.6"/>
    <path d="M26 6 A10 10 0 0 1 26 22" stroke="#fff" stroke-width="0.8" fill="none" opacity="0.5"/>
    <text x="38" y="11" font-family="Arial, sans-serif" font-weight="bold" font-size="14" fill="#fff">Переключение экрана</text>
    <text x="38" y="27" font-family="Arial, sans-serif" font-weight="bold" font-size="14" fill="#fff">по горизонтали и</text>
    <text x="38" y="43" font-family="Arial, sans-serif" font-weight="bold" font-size="14" fill="#fff">вертикали</text>
  </g>
  <g transform="translate(28, 528)">
    <circle cx="15" cy="14" r="13" fill="none" stroke="#fff" stroke-width="1.3" opacity="0.8"/>
    <path d="M4 8 A13 13 0 1 1 9 25" stroke="#fff" stroke-width="1.2" fill="none" opacity="0.6"/>
    <path d="M26 20 A13 13 0 1 1 21 3" stroke="#fff" stroke-width="1.2" fill="none" opacity="0.6"/>
    <text x="38" y="10" font-family="Arial, sans-serif" font-weight="bold" font-size="14" fill="#fff">поворот на 360°</text>
  </g>
</svg>