<svg xmlns="http://www.w3.org/2000/svg" viewBox="0 0 480 400" fill="none">
  <defs>
    <linearGradient id="bg3" x1="0" y1="0" x2="480" y2="400">
      <stop offset="0%" stop-color="#222"/>
      <stop offset="100%" stop-color="#1a1a1a"/>
    </linearGradient>
    <linearGradient id="dash" x1="0" y1="200" x2="0" y2="400">
      <stop offset="0%" stop-color="#3a3a3a"/>
      <stop offset="100%" stop-color="#2a2a2a"/>
    </linearGradient>
    <linearGradient id="arm3" x1="0" y1="0" x2="1" y2="0">
      <stop offset="0%" stop-color="#1a1a1a"/>
      <stop offset="25%" stop-color="#3a3a3a"/>
      <stop offset="50%" stop-color="#555"/>
      <stop offset="75%" stop-color="#3a3a3a"/>
      <stop offset="100%" stop-color="#1a1a1a"/>
    </linearGradient>
    <linearGradient id="joint3" x1="0" y1="0" x2="1" y2="1">
      <stop offset="0%" stop-color="#777"/>
      <stop offset="30%" stop-color="#ccc"/>
      <stop offset="50%" stop-color="#eee"/>
      <stop offset="70%" stop-color="#bbb"/>
      <stop offset="100%" stop-color="#666"/>
    </linearGradient>
    <linearGradient id="clamp3" x1="0" y1="0" x2="0" y2="1">
      <stop offset="0%" stop-color="#333"/>
      <stop offset="50%" stop-color="#2a2a2a"/>
      <stop offset="100%" stop-color="#1a1a1a"/>
    </linearGradient>
    <linearGradient id="suct3" x1="0" y1="0" x2="0" y2="1">
      <stop offset="0%" stop-color="#666"/>
      <stop offset="30%" stop-color="#999"/>
      <stop offset="50%" stop-color="#aaa"/>
      <stop offset="100%" stop-color="#555"/>
    </linearGradient>
    <linearGradient id="windshield" x1="0" y1="0" x2="0" y2="1">
      <stop offset="0%" stop-color="#2a3a5a" stop-opacity="0.3"/>
      <stop offset="100%" stop-color="#1a2a4a" stop-opacity="0.15"/>
    </linearGradient>
    <pattern id="carbon3" x="0" y="0" width="4" height="4" patternUnits="userSpaceOnUse">
      <rect width="4" height="4" fill="#2a2a2a"/>
      <rect width="2" height="2" fill="#333" opacity="0.5"/>
      <rect x="2" y="2" width="2" height="2" fill="#333" opacity="0.5"/>
    </pattern>
    <filter id="shadow3">
      <feDropShadow dx="0" dy="4" stdDeviation="8" flood-color="#000" flood-opacity="0.4"/>
    </filter>
  </defs>
  <rect width="480" height="400" fill="url(#bg3)"/>
  <path d="M0 0 L480 0 L480 180 Q240 220 0 180 Z" fill="url(#windshield)" opacity="0.3"/>
  <path d="M0 260 Q240 230 480 260 L480 400 L0 400 Z" fill="url(#dash)"/>
  <g opacity="0.08">
    <line x1="0" y1="280" x2="480" y2="275" stroke="#666" stroke-width="0.5"/>
    <line x1="0" y1="300" x2="480" y2="295" stroke="#666" stroke-width="0.5"/>
    <line x1="0" y1="320" x2="480" y2="315" stroke="#666" stroke-width="0.5"/>
  </g>
  <g opacity="0.15">
    <path d="M200 180 L230 100 L250 100 L280 180" fill="#444"/>
    <line x1="240" y1="100" x2="240" y2="180" stroke="#aaa" stroke-width="1" stroke-dasharray="6,4"/>
  </g>
  <g transform="translate(240, 40)" filter="url(#shadow3)">
    <ellipse cx="0" cy="280" rx="45" ry="12" fill="#222" opacity="0.3"/>
    <ellipse cx="0" cy="272" rx="42" ry="10" fill="url(#suct3)" stroke="#777" stroke-width="0.5"/>
    <ellipse cx="0" cy="269" rx="38" ry="9" fill="#555"/>
    <ellipse cx="0" cy="269" rx="32" ry="7" fill="none" stroke="#777" stroke-width="1"/>
    <ellipse cx="0" cy="267" rx="28" ry="6" fill="#333"/>
    <path d="M-26 265 Q-26 292 0 296 Q26 292 26 265" fill="#222"/>
    <rect x="-7" y="195" width="14" height="72" rx="3" fill="url(#arm3)"/>
    <rect x="-9" y="225" width="18" height="10" rx="2" fill="#333" stroke="#555" stroke-width="0.5"/>
    <circle cx="0" cy="193" r="11" fill="url(#joint3)" stroke="#999" stroke-width="0.8"/>
    <circle cx="0" cy="193" r="6" fill="#bbb"/>
    <rect x="-6" y="125" width="12" height="70" rx="2" fill="url(#arm3)"/>
    <circle cx="0" cy="123" r="10" fill="url(#joint3)" stroke="#999" stroke-width="0.8"/>
    <circle cx="0" cy="123" r="5" fill="#bbb"/>
    <rect x="-38" y="78" width="76" height="40" rx="4" fill="url(#clamp3)" stroke="#444" stroke-width="0.8"/>
    <rect x="-36" y="80" width="72" height="36" rx="3" fill="url(#carbon3)" opacity="0.3"/>
    <rect x="-46" y="84" width="10" height="30" rx="3" fill="#2a2a2a" stroke="#444" stroke-width="0.5"/>
    <rect x="36" y="84" width="10" height="30" rx="3" fill="#2a2a2a" stroke="#444" stroke-width="0.5"/>
    <rect x="-36" y="-20" width="72" height="102" rx="7" fill="#1a1a2e" stroke="#3a3a5a" stroke-width="1"/>
    <rect x="-31" y="-12" width="62" height="86" rx="4" fill="#4fc3f7" opacity="0.85"/>
    <path d="M-15 25 L0 10 L12 22 L25 5" stroke="white" stroke-width="1.5" fill="none" opacity="0.5"/>
    <circle cx="0" cy="30" r="5" fill="white" opacity="0.25"/>
    <circle cx="0" cy="30" r="2" fill="white" opacity="0.5"/>
    <polygon points="0,22 3,28 0,26 -3,28" fill="white" opacity="0.7"/>
    <text x="-25" y="0" font-family="Arial" font-size="8" fill="white" opacity="0.7">9:41</text>
    <rect x="-18" y="52" width="36" height="5" rx="2.5" fill="white" opacity="0.2"/>
    <rect x="-12" y="60" width="24" height="4" rx="2" fill="white" opacity="0.15"/>
  </g>
  <g>
    <line x1="80" y1="100" x2="175" y2="120" stroke="#4fc3f7" stroke-width="1" opacity="0.5"/>
    <circle cx="78" cy="98" r="3" fill="#4fc3f7" opacity="0.7"/>
    <text x="20" y="85" font-family="Arial, sans-serif" font-weight="bold" font-size="11" fill="#4fc3f7">Надёжная</text>
    <text x="20" y="98" font-family="Arial, sans-serif" font-weight="bold" font-size="11" fill="#4fc3f7">фиксация</text>
  </g>
  <g>
    <line x1="400" y1="200" x2="310" y2="230" stroke="#4fc3f7" stroke-width="1" opacity="0.5"/>
    <circle cx="402" cy="198" r="3" fill="#4fc3f7" opacity="0.7"/>
    <text x="380" y="185" font-family="Arial, sans-serif" font-weight="bold" font-size="11" fill="#4fc3f7">Мощная</text>
    <text x="380" y="198" font-family="Arial, sans-serif" font-weight="bold" font-size="11" fill="#4fc3f7">присоска</text>
  </g>
</svg>